<svg width="47" height="47" viewBox="0 0 47 47" fill="none" xmlns="http://www.w3.org/2000/svg">
<path fill-rule="evenodd" clip-rule="evenodd" d="M33.2898 23.3675C33.2898 23.3636 33.2918 23.3617 33.2918 23.3578C33.2918 23.294 33.2604 23.2418 33.2545 23.1799C33.2389 22.9942 33.2154 22.8086 33.1429 22.6345C33.09 22.503 33 22.3986 32.9197 22.2826C32.859 22.1975 32.8257 22.0989 32.7513 22.0215L27.1446 16.2199C26.3965 15.4464 25.1588 15.4193 24.3755 16.1561C23.5941 16.8929 23.5647 18.117 24.3108 18.8906L26.7588 21.4239H15.6668C14.5858 21.4239 13.7084 22.2884 13.7084 23.3578C13.7084 24.4253 14.5858 25.2916 15.6668 25.2916H26.606L24.0739 27.7921C23.3082 28.5463 23.3082 29.7705 24.0739 30.5266C24.4558 30.9037 24.9571 31.0932 25.4584 31.0932C25.9598 31.0932 26.4611 30.9037 26.843 30.5266L32.718 24.725C32.8962 24.549 33.0411 24.3363 33.139 24.1023C33.2389 23.8683 33.2878 23.6189 33.2898 23.3675ZM23.5001 38.8279C14.8619 38.8279 7.83343 31.8873 7.83343 23.3571C7.83343 14.8268 14.8619 7.88622 23.5001 7.88622C32.1383 7.88622 39.1668 14.8268 39.1668 23.3571C39.1668 31.8873 32.1383 38.8279 23.5001 38.8279ZM23.5001 4.01843C12.7018 4.01843 3.91672 12.6937 3.91672 23.357C3.91672 34.0203 12.7018 42.6956 23.5001 42.6956C34.2983 42.6956 43.0834 34.0203 43.0834 23.357C43.0834 12.6937 34.2983 4.01843 23.5001 4.01843Z" fill="#9A3820"/>
<mask id="mask0" mask-type="alpha" maskUnits="userSpaceOnUse" x="3" y="4" width="41" height="39">
<path fill-rule="evenodd" clip-rule="evenodd" d="M33.2898 23.3675C33.2898 23.3636 33.2918 23.3617 33.2918 23.3578C33.2918 23.294 33.2604 23.2418 33.2545 23.1799C33.2389 22.9942 33.2154 22.8086 33.1429 22.6345C33.09 22.503 33 22.3986 32.9197 22.2826C32.859 22.1975 32.8257 22.0989 32.7513 22.0215L27.1446 16.2199C26.3965 15.4464 25.1588 15.4193 24.3755 16.1561C23.5941 16.8929 23.5647 18.117 24.3108 18.8906L26.7588 21.4239H15.6668C14.5858 21.4239 13.7084 22.2884 13.7084 23.3578C13.7084 24.4253 14.5858 25.2916 15.6668 25.2916H26.606L24.0739 27.7921C23.3082 28.5463 23.3082 29.7705 24.0739 30.5266C24.4558 30.9037 24.9571 31.0932 25.4584 31.0932C25.9598 31.0932 26.4611 30.9037 26.843 30.5266L32.718 24.725C32.8962 24.549 33.0411 24.3363 33.139 24.1023C33.2389 23.8683 33.2878 23.6189 33.2898 23.3675ZM23.5001 38.8279C14.8619 38.8279 7.83343 31.8873 7.83343 23.3571C7.83343 14.8268 14.8619 7.88622 23.5001 7.88622C32.1383 7.88622 39.1668 14.8268 39.1668 23.3571C39.1668 31.8873 32.1383 38.8279 23.5001 38.8279ZM23.5001 4.01843C12.7018 4.01843 3.91672 12.6937 3.91672 23.357C3.91672 34.0203 12.7018 42.6956 23.5001 42.6956C34.2983 42.6956 43.0834 34.0203 43.0834 23.357C43.0834 12.6937 34.2983 4.01843 23.5001 4.01843Z" fill="white"/>
</mask>
<g mask="url(#mask0)">
</g>
</svg>
