<svg width="48" height="48" viewBox="0 0 48 48" fill="none" xmlns="http://www.w3.org/2000/svg">
<path fill-rule="evenodd" clip-rule="evenodd" d="M32 21.8757H20.672L23.172 19.2884C23.934 18.5004 23.904 17.2502 23.106 16.4958C22.306 15.7453 21.042 15.7729 20.278 16.5629L14.552 22.4879C14.476 22.5669 14.442 22.6657 14.38 22.7545C14.298 22.8711 14.206 22.9777 14.152 23.112C14.078 23.2917 14.054 23.4794 14.038 23.6709C14.032 23.7322 14 23.7875 14 23.8507C14 23.8546 14.002 23.8566 14.002 23.8605C14.004 24.1173 14.054 24.3721 14.156 24.613C14.256 24.852 14.404 25.0673 14.586 25.249L20.586 31.172C20.976 31.5571 21.488 31.7507 22 31.7507C22.512 31.7507 23.024 31.5571 23.414 31.172C24.196 30.3998 24.196 29.1516 23.414 28.3793L20.828 25.8257H32C33.104 25.8257 34 24.9409 34 23.8507C34 22.7605 33.104 21.8757 32 21.8757ZM24 39.6507C15.178 39.6507 8 32.5624 8 23.8507C8 15.1389 15.178 8.05066 24 8.05066C32.822 8.05066 40 15.1389 40 23.8507C40 32.5624 32.822 39.6507 24 39.6507ZM24 4.10065C12.972 4.10065 4 12.9605 4 23.8507C4 34.7408 12.972 43.6007 24 43.6007C35.028 43.6007 44 34.7408 44 23.8507C44 12.9605 35.028 4.10065 24 4.10065Z" fill="#9A3820"/>
<mask id="mask0" mask-type="alpha" maskUnits="userSpaceOnUse" x="4" y="4" width="40" height="40">
<path fill-rule="evenodd" clip-rule="evenodd" d="M32 21.8757H20.672L23.172 19.2884C23.934 18.5004 23.904 17.2502 23.106 16.4958C22.306 15.7453 21.042 15.7729 20.278 16.5629L14.552 22.4879C14.476 22.5669 14.442 22.6657 14.38 22.7545C14.298 22.8711 14.206 22.9777 14.152 23.112C14.078 23.2917 14.054 23.4794 14.038 23.6709C14.032 23.7322 14 23.7875 14 23.8507C14 23.8546 14.002 23.8566 14.002 23.8605C14.004 24.1173 14.054 24.3721 14.156 24.613C14.256 24.852 14.404 25.0673 14.586 25.249L20.586 31.172C20.976 31.5571 21.488 31.7507 22 31.7507C22.512 31.7507 23.024 31.5571 23.414 31.172C24.196 30.3998 24.196 29.1516 23.414 28.3793L20.828 25.8257H32C33.104 25.8257 34 24.9409 34 23.8507C34 22.7605 33.104 21.8757 32 21.8757ZM24 39.6507C15.178 39.6507 8 32.5624 8 23.8507C8 15.1389 15.178 8.05066 24 8.05066C32.822 8.05066 40 15.1389 40 23.8507C40 32.5624 32.822 39.6507 24 39.6507ZM24 4.10065C12.972 4.10065 4 12.9605 4 23.8507C4 34.7408 12.972 43.6007 24 43.6007C35.028 43.6007 44 34.7408 44 23.8507C44 12.9605 35.028 4.10065 24 4.10065Z" fill="white"/>
</mask>
<g mask="url(#mask0)">
</g>
</svg>
