<svg width="25" height="25" viewBox="0 0 25 25" fill="none" xmlns="http://www.w3.org/2000/svg">
<path fill-rule="evenodd" clip-rule="evenodd" d="M8.42879 10.4167L12.5017 15.4396L16.6527 10.4167H8.42879ZM12.4996 17.7084C11.9726 17.7084 11.4684 17.4657 11.1184 17.0396L6.72985 11.7292C6.20485 11.0927 6.10068 10.1896 6.46005 9.42608C6.77776 8.75212 7.41005 8.33337 8.1111 8.33337H16.8882C17.5892 8.33337 18.2215 8.75212 18.5392 9.42608C18.8996 10.1896 18.7944 11.0927 18.2705 11.7282L13.8809 17.0396C13.5309 17.4657 13.0267 17.7084 12.4996 17.7084Z" fill="#231F20"/>
<mask id="mask0" mask-type="alpha" maskUnits="userSpaceOnUse" x="6" y="8" width="13" height="10">
<path fill-rule="evenodd" clip-rule="evenodd" d="M8.42879 10.4167L12.5017 15.4396L16.6527 10.4167H8.42879ZM12.4996 17.7084C11.9726 17.7084 11.4684 17.4657 11.1184 17.0396L6.72985 11.7292C6.20485 11.0927 6.10068 10.1896 6.46005 9.42608C6.77776 8.75212 7.41005 8.33337 8.1111 8.33337H16.8882C17.5892 8.33337 18.2215 8.75212 18.5392 9.42608C18.8996 10.1896 18.7944 11.0927 18.2705 11.7282L13.8809 17.0396C13.5309 17.4657 13.0267 17.7084 12.4996 17.7084Z" fill="white"/>
</mask>
<g mask="url(#mask0)">
<rect width="25" height="25" rx="12.5" fill="white"/>
</g>
</svg>
