<svg width="36" height="33" viewBox="0 0 36 33" fill="none" xmlns="http://www.w3.org/2000/svg">
<path fill-rule="evenodd" clip-rule="evenodd" d="M2.49207 0.230713H33.8976C34.9157 0.230713 35.7485 1.36937 35.7485 2.76136V3.03336C35.7485 4.42536 34.9157 5.56402 33.8976 5.56402H2.49207C1.47401 5.56402 0.643188 4.42536 0.643188 3.03336V2.76136C0.643188 1.36937 1.47401 0.230713 2.49207 0.230713ZM33.8976 13.564H2.49207C1.47401 13.564 0.643188 14.7026 0.643188 16.0946V16.3666C0.643188 17.7586 1.47401 18.8973 2.49207 18.8973H33.8976C34.9157 18.8973 35.7485 17.7586 35.7485 16.3666V16.0946C35.7485 14.7026 34.9157 13.564 33.8976 13.564ZM33.8976 26.8974H2.49207C1.47401 26.8974 0.643188 28.0361 0.643188 29.428V29.7C0.643188 31.092 1.47401 32.2307 2.49207 32.2307H33.8976C34.9157 32.2307 35.7485 31.092 35.7485 29.7V29.428C35.7485 28.0361 34.9157 26.8974 33.8976 26.8974Z" fill="#9A3820"/>
</svg>
