<svg width="136" height="80" viewBox="0 0 136 80" fill="none" xmlns="http://www.w3.org/2000/svg">
<path d="M31.408 23.491C29.8968 23.5105 28.4043 23.8281 27.0159 24.4257C26.266 24.7478 25.5531 25.15 24.8896 25.6255C24.0584 26.2182 20.6455 28.9797 22.7718 29.923C24.2292 30.5614 26.4722 29.1963 25.772 27.5121C25.604 27.1348 25.3528 26.8007 25.0373 26.5346C24.7217 26.2686 24.3501 26.0776 23.9502 25.976C23.2215 25.7851 22.5725 26.013 21.9321 26.3607C20.3523 27.2157 18.9689 28.4981 17.6481 29.7064C15.8861 31.3889 13.9062 32.8266 11.7617 33.9811C9.39163 35.2385 6.77038 35.9484 4.09042 36.0586C3.39588 36.0786 2.63303 36.0985 1.99542 35.7737C1.35781 35.4488 0.95646 34.7762 0.731589 34.1037C0.326305 32.7969 0.280091 31.4049 0.597805 30.074C1.1671 27.438 2.75258 25.0071 4.59994 23.0777C6.33059 21.2681 8.58499 19.7549 11.1468 19.5468C12.3103 19.4648 13.4744 19.6967 14.5178 20.2185C15.5612 20.7403 16.4456 21.5329 17.0789 22.5135C17.6481 23.4368 18.0438 24.762 17.6481 25.8307C17.5472 26.1195 17.3725 26.3769 17.1415 26.5773C16.6775 26.9478 16.3302 26.7227 16.0399 26.2923C15.6385 25.6853 15.2685 25.0527 14.9013 24.42C13.4986 21.9705 12.3292 19.3943 11.4087 16.7255C10.9732 15.463 10.1221 13.6278 11.0586 12.4109C11.7901 11.4619 13.2162 11.3508 14.3149 11.516C15.6158 11.7127 16.8568 12.257 18.189 12.2313C19.1728 12.2072 20.1165 11.8358 20.8533 11.1826C22.5327 9.72636 23.1048 7.47785 23.6997 5.43454C24.0442 4.23761 24.4256 3.01789 25.123 1.97771C25.4512 1.426 25.9034 0.958589 26.4437 0.612649C26.8479 0.390363 27.366 0.259272 27.7588 0.612649C28.0435 0.869132 28.1345 1.29945 28.2142 1.66138C28.8405 4.5112 28.6953 7.51775 28.1516 10.3647C27.6028 13.1642 26.7217 15.888 25.5272 18.4781C24.4939 20.7352 23.1959 22.9096 21.4482 24.6907C21.1635 24.9757 18.5106 27.3496 18.2971 26.8281C18.3882 27.0532 18.7611 26.9535 18.6672 26.7255C18.4509 26.1954 17.7449 26.7255 18.0239 27.133C18.5192 27.8626 20.0164 26.4719 20.3836 26.1698C22.4587 24.5083 24.0214 22.2997 25.2311 19.9486C27.8727 14.8446 29.6033 8.70897 28.8205 2.9324C28.6981 2.01191 28.6384 0.319118 27.4941 0.0398361C26.4722 -0.205248 25.5585 0.718092 25.012 1.42485C23.4208 3.50806 23.3041 6.26953 22.2224 8.57218C21.6873 9.71211 20.913 10.852 19.7631 11.422C18.2231 12.1914 16.5978 11.5816 15.0351 11.2311C13.1934 10.8178 10.4096 11.0629 10.2644 13.4881C10.1819 14.8845 10.8736 16.3778 11.3432 17.6602C11.8527 19.0453 12.4277 20.4075 13.0511 21.7355C13.7178 23.1208 14.4541 24.4714 15.2571 25.7822C15.6955 26.4975 16.2448 27.6203 17.2297 26.9677C19.0201 25.7908 17.967 22.9181 16.9195 21.6585C16.1972 20.7933 15.2758 20.1166 14.2346 19.6867C13.1933 19.2568 12.0634 19.0865 10.9419 19.1906C8.42559 19.4585 6.21104 20.9005 4.47185 22.6702C2.59887 24.5625 1.01054 26.9563 0.32739 29.5582C-0.190667 31.5246 -0.358609 35.1154 1.8901 36.147C3.01161 36.66 4.48323 36.4633 5.66452 36.3151C7.00414 36.1434 8.32002 35.8203 9.58695 35.3519C12.1442 34.3861 14.5108 32.9756 16.5779 31.1855C18.1947 29.8119 19.6663 28.2758 21.4453 27.1017C22.2395 26.5802 23.1105 26.0472 24.0812 26.412C24.3972 26.5225 24.6849 26.7013 24.9241 26.9357C25.1632 27.1702 25.3477 27.4545 25.4646 27.7685C25.7264 28.6235 25.1173 29.2305 24.3658 29.5098C23.825 29.7121 22.7149 29.866 22.5099 29.1079C22.305 28.3499 23.3639 27.4693 23.8278 27.0162C25.856 25.0314 28.572 23.9082 31.408 23.8814C31.4549 23.8757 31.4981 23.8529 31.5295 23.8175C31.5608 23.7821 31.5781 23.7364 31.5781 23.689C31.5781 23.6417 31.5608 23.596 31.5295 23.5606C31.4981 23.5251 31.4549 23.5024 31.408 23.4967V23.491Z" fill="#EC6907"/>
<path d="M21.0639 28.7603C19.4699 30.1425 17.8616 31.5047 16.2818 32.9039C14.8102 34.2063 13.2902 35.5144 12.0121 37.0134C11.7275 37.3525 11.3176 37.7743 11.2179 38.2274C11.1069 38.7289 11.6791 39.1308 12.1402 38.9854C14.4174 38.273 16.0996 36.1641 17.2923 34.2177C18.9091 31.5788 20.0306 28.5665 22.47 26.5232C22.6607 26.3636 22.3875 26.0929 22.1854 26.2382C18.4309 29.373 17.7477 35.0128 13.6033 37.7572C13.1919 38.078 12.7315 38.3301 12.2398 38.5038C12.0633 38.5466 11.6449 38.7175 11.5794 38.4155C11.5794 38.3471 11.6164 38.2701 11.6335 38.2074C11.7702 37.7315 12.2968 37.2641 12.6184 36.9136C13.8454 35.6192 15.1395 34.3902 16.4953 33.2317C18.095 31.8067 19.726 30.4331 21.3343 29.031C21.5222 28.8686 21.2489 28.5979 21.0496 28.746L21.0639 28.7603Z" fill="#EC6907"/>
<path d="M38.2594 78.4098C37.7858 78.4141 37.3147 78.3409 36.8646 78.1932C36.3033 78.0255 35.7829 77.7431 35.3361 77.3639C34.8951 76.9838 34.5325 76.521 34.2686 76.0017C33.6994 74.8295 33.6272 73.4901 34.0523 71.9835C35.1435 68.0678 37.8675 65.0109 42.2245 62.8128C43.1485 62.3479 44.0989 61.9377 45.071 61.5845C46.0027 61.2482 46.9003 60.9632 47.7638 60.7296C47.908 59.5896 48.0029 58.4269 48.0484 57.2414C48.1281 55.8279 48.149 54.4913 48.111 53.2317C48.0801 52.0722 47.9851 50.9153 47.8264 49.7663C47.6982 48.8203 47.4935 47.8863 47.2144 46.9735C47.0045 46.2646 46.6969 45.5884 46.3007 44.9644C46.1288 44.6741 45.8817 44.4358 45.5855 44.2747C45.2894 44.1137 44.9552 44.0359 44.6184 44.0496H44.5928C44.2046 44.073 43.8215 44.1497 43.4542 44.2776C43.0037 44.4341 42.5722 44.6406 42.1676 44.8931C41.1197 45.5465 40.1788 46.3578 39.3781 47.2984C38.5127 48.2871 37.785 49.3886 37.2147 50.5728C36.5827 51.7868 36.2105 53.1195 36.1217 54.4856C36.0426 55.6525 36.291 56.8183 36.839 57.8512C36.86 57.878 36.8743 57.9093 36.8809 57.9427C36.8876 57.976 36.8862 58.0105 36.8771 58.0432C36.8679 58.0759 36.8512 58.1061 36.8283 58.1311C36.8054 58.1562 36.7768 58.1755 36.7451 58.1875C36.5999 58.2844 36.4946 58.2531 36.432 58.0906C35.8014 56.929 35.5328 55.6049 35.6606 54.289C35.6964 53.6367 35.8053 52.9905 35.9851 52.3625C36.1842 51.6845 36.4384 51.024 36.7451 50.3876C37.0372 49.7701 37.3739 49.1748 37.7527 48.6064C38.1327 48.037 38.5511 47.4943 39.0052 46.982C39.4467 46.4906 39.9193 46.028 40.4199 45.597C40.8814 45.1921 41.3755 44.8261 41.8972 44.5027C42.7034 43.9754 43.6297 43.6607 44.5899 43.5879C45.0123 43.57 45.4316 43.6665 45.8038 43.8671C46.176 44.0677 46.4872 44.365 46.7049 44.7278C47.4753 45.9001 48.0209 47.6575 48.3416 50C48.4687 51.0601 48.5522 52.2001 48.5921 53.4198C48.6319 54.6395 48.6148 55.9333 48.5323 57.2955C48.501 57.8655 48.464 58.4127 48.4241 58.957C48.3843 59.5013 48.333 60.057 48.2676 60.6184C49.3891 60.3448 50.3673 60.1358 51.2023 59.9915C51.2339 59.9809 51.2675 59.9777 51.3005 59.9823C51.3335 59.9869 51.365 59.999 51.3926 60.0178C51.4201 60.0365 51.443 60.0614 51.4593 60.0904C51.4757 60.1195 51.4851 60.1519 51.4869 60.1852C51.4981 60.2167 51.5017 60.2502 51.4976 60.2833C51.4934 60.3164 51.4816 60.348 51.4631 60.3757C51.4446 60.4034 51.4198 60.4264 51.3909 60.4428C51.3619 60.4592 51.3295 60.4686 51.2962 60.4702C50.7269 60.5671 50.1899 60.6716 49.6851 60.7837C49.1728 60.8948 48.6746 61.0174 48.1936 61.1456C48.1139 61.7878 48.0294 62.4214 47.9402 63.0465C47.852 63.6734 47.7438 64.289 47.6157 64.8988C47.3766 66.1509 47.1081 67.3022 46.8102 68.3528C46.5479 69.3049 46.2315 70.2412 45.8623 71.157C45.4203 72.4585 44.8097 73.6964 44.0463 74.839C43.4052 75.8115 42.585 76.6529 41.6296 77.3183C41.2493 77.5809 40.843 77.8034 40.417 77.9823C40.0098 78.1502 39.5862 78.2753 39.1532 78.3557C38.8573 78.3987 38.5583 78.4168 38.2594 78.4098ZM47.7068 61.271C45.7173 61.7914 43.7939 62.5382 41.974 63.4967C40.5718 64.2421 39.2707 65.1644 38.1028 66.2411C37.1654 67.1094 36.3667 68.1167 35.7346 69.2277C35.2159 70.1445 34.8043 71.1179 34.5077 72.1288C34.3094 72.8072 34.2361 73.516 34.2914 74.2206C34.3405 74.7957 34.5 75.356 34.7611 75.8706C34.997 76.3295 35.329 76.7319 35.7346 77.0505C36.2093 77.4284 36.7622 77.6959 37.353 77.8334C37.9438 77.9709 38.5577 77.9751 39.1503 77.8456C39.9363 77.6783 40.6807 77.3546 41.3393 76.8937C42.2587 76.2613 43.0466 75.456 43.6591 74.5227C44.3894 73.415 44.9739 72.2177 45.3983 70.9604C45.9737 69.5607 46.4289 68.1144 46.7589 66.6372C47.1671 64.866 47.4835 63.0749 47.7068 61.271Z" fill="#993921"/>
<path d="M55.7139 62.2827H55.6655C54.897 62.2827 54.3505 61.8581 54.0317 61.006L53.8865 60.6469C53.7897 60.7752 53.6702 60.9319 53.525 61.1143C53.3798 61.2967 53.2034 61.5047 52.9956 61.7298C52.8709 61.8688 52.7193 61.9808 52.55 62.0592C52.3806 62.1376 52.1972 62.1807 52.0107 62.1858C51.7944 62.194 51.582 62.1265 51.4101 61.9949C51.3019 61.8964 51.2142 61.7775 51.1522 61.6449C51.0901 61.5124 51.0549 61.3688 51.0486 61.2226C51.0423 60.8054 51.1778 60.3984 51.4329 60.0684C51.7535 59.5763 52.2205 59.1975 52.7678 58.9855C52.9655 58.91 53.1722 58.8612 53.3827 58.8401C53.5734 58.8259 53.7271 58.8173 53.8381 58.8173C54.0246 58.8342 54.2093 58.8666 54.3903 58.9142C54.4701 58.9258 54.5462 58.9554 54.6128 59.0008C54.6794 59.0462 54.7347 59.1063 54.7746 59.1764C54.7917 59.206 54.8022 59.2389 54.8053 59.273C54.8085 59.307 54.8042 59.3413 54.7929 59.3735C54.7815 59.4058 54.7633 59.4352 54.7395 59.4597C54.7157 59.4842 54.6869 59.5032 54.6551 59.5155C54.6299 59.532 54.6016 59.5432 54.5719 59.5484C54.5423 59.5535 54.5119 59.5526 54.4826 59.5457C54.4533 59.5388 54.4258 59.526 54.4016 59.508C54.3774 59.4901 54.3571 59.4675 54.3419 59.4414C54.2465 59.3856 54.1411 59.3488 54.0317 59.3331C53.8245 59.2968 53.6126 59.2968 53.4055 59.3331C53.1414 59.3775 52.8859 59.4631 52.6483 59.5868C52.311 59.7742 52.0254 60.0425 51.8171 60.3676C51.6437 60.5932 51.5443 60.8669 51.5325 61.1513C51.528 61.2398 51.5442 61.3281 51.5798 61.4093C51.6153 61.4904 51.6693 61.5621 51.7374 61.6187C51.7929 61.6617 51.8568 61.6925 51.925 61.7092C51.9931 61.7259 52.064 61.7281 52.1331 61.7156C52.3388 61.6795 52.5236 61.5677 52.6511 61.4021C52.8419 61.2112 53.0098 61.0288 53.155 60.8606C53.3001 60.6925 53.4197 60.5443 53.5165 60.4161C53.6167 60.2884 53.7053 60.152 53.7812 60.0086V59.8376C53.7812 59.6637 53.8609 59.5754 54.0203 59.5754C54.0528 59.5706 54.086 59.5735 54.1172 59.5838C54.1484 59.5941 54.1767 59.6116 54.1999 59.6349C54.2232 59.6582 54.2407 59.6865 54.251 59.7178C54.2613 59.749 54.2642 59.7822 54.2594 59.8148C54.2765 59.9259 54.2936 60.0399 54.3078 60.151C54.322 60.2622 54.3448 60.3562 54.3704 60.4759C54.3957 60.6061 54.4398 60.7318 54.5013 60.8492C54.7433 61.4933 55.1333 61.8125 55.6798 61.8125H55.7282C56.22 61.799 56.7068 61.7096 57.1713 61.5475C57.715 61.3708 58.2274 61.1798 58.7084 60.9775C59.1895 60.7752 59.7758 60.4902 60.4647 60.1225C60.4927 60.1053 60.524 60.094 60.5566 60.0896C60.5892 60.0851 60.6224 60.0875 60.654 60.0966C60.6857 60.1058 60.715 60.1214 60.7403 60.1425C60.7655 60.1637 60.786 60.1899 60.8006 60.2194C60.8241 60.2783 60.8273 60.3433 60.8098 60.4042C60.7923 60.4651 60.755 60.5184 60.7038 60.5557L60.1146 60.8549C59.7559 61.0402 59.3204 61.2368 58.8166 61.4449C58.3128 61.6529 57.7805 61.8467 57.2197 62.0148C56.7342 62.1799 56.2265 62.2702 55.7139 62.2827Z" fill="#993921"/>
<path d="M65.8815 63.7988C64.9536 63.7988 64.2486 63.5138 63.7666 62.9439C63.5148 62.6459 63.3303 62.2969 63.2258 61.9208C63.1222 61.5558 63.062 61.1799 63.0464 60.8008C62.8562 61.3135 62.6308 61.8125 62.3718 62.2941C62.2527 62.5134 62.1166 62.7231 61.9648 62.9211C61.9012 63.0143 61.8165 63.0911 61.7175 63.1451C61.6185 63.1991 61.5082 63.2288 61.3955 63.2317H61.2987C61.2019 63.2145 61.1108 63.1739 61.0334 63.1133C60.956 63.0526 60.8946 62.9739 60.8547 62.884C60.7544 62.6977 60.6779 62.4995 60.6269 62.2941C60.5786 62.1003 60.533 61.8723 60.4932 61.6073C60.4533 61.3423 60.4163 61.0373 60.385 60.7039C60.3366 60.1339 60.3138 59.6381 60.3138 59.1878V58.4782C60.3203 58.4189 60.3484 58.364 60.3928 58.3241C60.4372 58.2843 60.4947 58.2622 60.5544 58.2622C60.614 58.2622 60.6715 58.2843 60.7159 58.3241C60.7603 58.364 60.7884 58.4189 60.7949 58.4782V59.1764C60.7949 59.6267 60.8177 60.1254 60.866 60.6697C60.8837 61.0624 60.9323 61.4531 61.0112 61.8381C61.0526 62.0487 61.1165 62.2541 61.2019 62.4509C61.2355 62.5636 61.3031 62.6631 61.3955 62.7358C61.4268 62.7501 61.4752 62.7358 61.5407 62.6617C61.7238 62.4836 61.8707 62.2717 61.9733 62.0376C62.1887 61.6201 62.3788 61.1899 62.5426 60.7495C62.7495 60.2118 62.9743 59.5735 63.2172 58.8344C63.2229 58.8022 63.2351 58.7715 63.2532 58.7442C63.2713 58.717 63.2949 58.6938 63.3224 58.6761C63.3499 58.6584 63.3807 58.6467 63.413 58.6416C63.4453 58.6364 63.4783 58.6381 63.5099 58.6464C63.5416 58.6547 63.5711 58.6695 63.5967 58.6898C63.6223 58.7102 63.6435 58.7356 63.6587 58.7645C63.674 58.7934 63.6832 58.8252 63.6856 58.8579C63.688 58.8905 63.6836 58.9233 63.6727 58.9541C63.5876 59.4115 63.5353 59.8743 63.5161 60.3391C63.5111 60.739 63.5483 61.1383 63.6271 61.5304C63.6966 61.9295 63.8704 62.3032 64.1309 62.6133C64.594 63.1434 65.2913 63.3761 66.2231 63.3115C66.6236 63.2626 67.0209 63.1902 67.4129 63.0949C68.0953 62.9411 68.769 62.7508 69.4311 62.5249C70.2527 62.2462 71.0585 61.9227 71.8449 61.556C72.6905 61.1663 73.4961 60.6948 74.2501 60.1482C74.2753 60.1292 74.304 60.1154 74.3346 60.1075C74.3651 60.0996 74.3969 60.0979 74.4281 60.1024C74.4594 60.1069 74.4894 60.1176 74.5165 60.1337C74.5436 60.1499 74.5672 60.1713 74.586 60.1966C74.6096 60.2198 74.6273 60.2483 74.6379 60.2796C74.6484 60.3109 74.6515 60.3443 74.6468 60.377C74.6421 60.4098 74.6297 60.4409 74.6108 60.468C74.5918 60.4951 74.5667 60.5173 74.5376 60.5329C73.7602 61.12 72.9166 61.6135 72.0242 62.0034C71.1702 62.3711 70.396 62.676 69.7043 62.9182C68.9827 63.1692 68.2482 63.3813 67.504 63.5537C66.8892 63.6905 66.4679 63.776 66.243 63.8074L65.8815 63.7988Z" fill="#993921"/>
<path d="M79.2514 64.0638C78.4015 64.0746 77.575 63.785 76.9173 63.2459C76.6129 62.9919 76.3606 62.6813 76.1743 62.3311C76.0056 62.0313 75.9293 61.6882 75.9552 61.3451C75.9804 61.1487 76.0331 60.9568 76.1117 60.7751C76.1766 60.6365 76.2538 60.5039 76.3423 60.379H76.3167C76.1886 60.379 76.032 60.379 75.8242 60.4018L75.2549 60.4502C74.9694 60.4981 74.6762 60.4468 74.4238 60.3049C74.2674 60.2046 74.1328 60.0738 74.0281 59.9202C73.8994 59.6546 73.8652 59.3529 73.9313 59.0652C73.983 58.7829 74.0978 58.5159 74.2672 58.2844C74.6373 57.8199 74.9731 57.609 75.2777 57.6574C75.3723 57.6743 75.4604 57.717 75.5322 57.7809C75.6041 57.8448 75.6569 57.9273 75.6848 58.0194C75.7618 58.3029 75.7407 58.6042 75.625 58.8743C75.48 59.2705 75.265 59.6373 74.9902 59.9572H75.2293C75.7104 59.9088 76.0633 59.886 76.2882 59.886C76.4011 59.8844 76.5138 59.8959 76.6241 59.9202C76.719 59.9442 76.8032 59.9994 76.8632 60.0769C76.8884 60.1197 76.9028 60.168 76.9053 60.2177C76.9078 60.2673 76.8982 60.3168 76.8774 60.3619C76.838 60.4491 76.7933 60.5338 76.7436 60.6155C76.6759 60.7192 76.6159 60.8278 76.5643 60.9404C76.5019 61.0826 76.457 61.2319 76.4305 61.385C76.4069 61.6453 76.4656 61.9066 76.5985 62.1316C76.7556 62.4197 76.9685 62.6735 77.2247 62.8783C77.6422 63.215 78.1392 63.4387 78.6679 63.528C79.2462 63.6228 79.8387 63.5818 80.3985 63.4083C80.7975 63.2878 81.1875 63.1393 81.5656 62.9638C82.0068 62.7614 82.4565 62.542 82.9233 62.2998C83.3901 62.0575 83.837 61.8153 84.2697 61.5674C84.7024 61.3194 85.0952 61.0886 85.4481 60.8806C85.8011 60.6725 86.0801 60.4987 86.3021 60.3619C86.4098 60.2861 86.523 60.2185 86.6408 60.1596C86.6675 60.1386 86.6988 60.1242 86.7321 60.1176C86.7654 60.111 86.7998 60.1123 86.8325 60.1214C86.8652 60.1306 86.8953 60.1473 86.9204 60.1703C86.9454 60.1933 86.9647 60.2218 86.9767 60.2536C87.0007 60.2757 87.0184 60.3037 87.0281 60.3349C87.0378 60.366 87.0391 60.3992 87.0319 60.431C87.0246 60.4628 87.0091 60.4921 86.987 60.516C86.9648 60.5399 86.9367 60.5575 86.9055 60.5671C86.8714 60.5842 86.7433 60.664 86.5184 60.8093C86.2935 60.9547 86.0032 61.1285 85.6417 61.3394C85.2802 61.5503 84.8817 61.7783 84.4405 62.0376C83.9993 62.2969 83.5496 62.5363 83.0941 62.77C82.6387 63.0037 82.1832 63.2203 81.7363 63.4197C81.3475 63.5998 80.9448 63.7485 80.5323 63.8643C80.3231 63.9265 80.1101 63.9751 79.8947 64.0097C79.682 64.0446 79.4669 64.0627 79.2514 64.0638ZM75.2123 58.1362C75.1425 58.1511 75.0766 58.1802 75.0187 58.2217C74.8795 58.3163 74.7572 58.4339 74.6572 58.5694C74.5253 58.7232 74.4386 58.9106 74.4067 59.1108C74.3619 59.3021 74.383 59.503 74.4665 59.6808C74.476 59.7017 74.4875 59.7218 74.5006 59.7406C74.5161 59.7585 74.5286 59.7787 74.5376 59.8005C74.776 59.5113 74.9742 59.1911 75.1269 58.8486C75.2163 58.6569 75.262 58.4476 75.2606 58.2359C75.2436 58.1761 75.2265 58.1362 75.2123 58.1362Z" fill="#993921"/>
<path d="M88.6732 62.884C88.2306 62.8967 87.7897 62.8231 87.3752 62.6674C87.212 62.592 87.0589 62.4963 86.9198 62.3824C86.7885 62.2741 86.6818 62.1391 86.6067 61.9863C86.45 61.677 86.3765 61.3323 86.3934 60.986C86.4104 60.6396 86.5173 60.3037 86.7034 60.0113C86.8805 59.689 87.1264 59.4098 87.4236 59.1934C87.6655 58.9936 87.9645 58.8759 88.2775 58.8572C88.3725 58.8507 88.4677 58.8681 88.5542 58.9079C88.6407 58.9478 88.7159 59.0087 88.7728 59.0852C88.8254 59.1693 88.8582 59.2644 88.8685 59.3632C88.8789 59.462 88.8666 59.5618 88.8326 59.6551C88.7358 59.9762 88.3667 60.321 87.7253 60.6896C87.6255 60.7647 87.5209 60.8332 87.4122 60.8948C87.3281 60.9473 87.2396 60.9921 87.1475 61.0287C87.0622 61.073 86.9748 61.1129 86.8856 61.1484H86.86C86.8684 61.4148 86.9512 61.6735 87.0991 61.8951C87.341 62.2143 87.842 62.3852 88.602 62.3995C89.577 62.3836 90.5448 62.2301 91.477 61.9435C92.4073 61.691 93.3225 61.3856 94.2181 61.0287C94.8472 60.793 95.4509 60.4941 96.0199 60.1367C96.1651 60.0569 96.2761 60.074 96.3558 60.1852C96.3789 60.2085 96.3964 60.2367 96.4068 60.2678C96.4172 60.299 96.4204 60.3321 96.4159 60.3646C96.4115 60.3971 96.3997 60.4282 96.3814 60.4554C96.3631 60.4826 96.3387 60.5052 96.3103 60.5215C95.716 60.8933 95.0879 61.2082 94.4345 61.4619C93.508 61.8389 92.557 62.1522 91.588 62.3995C91.125 62.5268 90.6363 62.6398 90.122 62.7386C89.6444 62.8302 89.1595 62.8788 88.6732 62.884ZM88.2889 59.3445C88.0882 59.373 87.8981 59.4524 87.7367 59.5753C87.4762 59.7498 87.2615 59.9843 87.1105 60.2593C87.0798 60.3058 87.0522 60.3544 87.0279 60.4046C87.002 60.4583 86.982 60.5147 86.9682 60.5728C87.2665 60.4289 87.5521 60.2602 87.8221 60.0683C88.0568 59.9294 88.2527 59.7334 88.3914 59.4984C88.417 59.3929 88.3857 59.3445 88.2889 59.3445Z" fill="#993921"/>
<path d="M93.9335 80C93.683 80 93.4332 79.9752 93.1877 79.9259C92.5994 79.7908 92.0464 79.5325 91.5652 79.1678C91.0566 78.786 90.6281 78.3076 90.3042 77.76C89.9482 77.1235 89.7155 76.4254 89.6182 75.7025C89.5152 74.929 89.5441 74.1436 89.7036 73.3798C90.1856 70.9537 92.5738 68.1989 96.8682 65.1154C97.2667 64.8304 97.6652 64.5454 98.058 64.2832L99.2478 63.4768C99.1985 62.5268 99.1264 61.7165 99.0315 61.0459C98.9974 60.7579 98.9451 60.4723 98.8749 60.1909C98.8334 60.0271 98.7811 59.8662 98.7184 59.7093C98.675 59.6074 98.6185 59.5116 98.5505 59.4243C98.5334 59.4243 98.5021 59.45 98.4537 59.4984C97.9584 60.0684 97.5181 60.549 97.1329 60.9404C96.7486 61.3422 96.4099 61.6728 96.1224 61.9293C95.9271 62.1067 95.7177 62.2677 95.4962 62.4109C95.4129 62.461 95.3241 62.5012 95.2315 62.5306C95.1882 62.5465 95.142 62.5524 95.0962 62.5479C95.0504 62.5435 95.0061 62.5288 94.9667 62.505C94.9141 62.4666 94.8696 62.4182 94.8358 62.3625C94.7911 62.246 94.7911 62.117 94.8358 62.0005C94.9811 61.6394 95.1674 61.2961 95.3909 60.9775C95.6872 60.5245 96.0164 60.094 96.3757 59.6893C96.5351 59.4984 96.7116 59.3046 96.9052 59.1194C97.0924 58.9328 97.2931 58.7604 97.5058 58.6036C97.6959 58.4608 97.9012 58.3395 98.1178 58.2416C98.2954 58.1581 98.4912 58.1208 98.6871 58.1333C98.8701 58.1424 99.0442 58.2149 99.1795 58.3385C99.3841 58.5576 99.4998 58.8451 99.504 59.145C99.5353 59.2904 99.4699 59.3787 99.3105 59.4101C99.1511 59.4414 99.0457 59.3787 99.0457 59.2163C98.9973 58.8971 98.9233 58.7119 98.818 58.6634C98.7474 58.6253 98.6701 58.6011 98.5903 58.5922C98.2622 58.6763 97.9607 58.842 97.7136 59.0738C97.2869 59.4268 96.896 59.821 96.5465 60.2508C96.2885 60.55 96.048 60.864 95.8264 61.1912C95.6715 61.4127 95.5345 61.6462 95.4165 61.8894C95.7253 61.6433 96.0181 61.3777 96.2932 61.0943C96.7031 60.6934 97.2999 60.0598 98.0836 59.1935C98.1288 59.1294 98.1863 59.0749 98.2528 59.0333C98.3193 58.9917 98.3934 58.9638 98.4708 58.9512C98.5678 58.9497 98.6643 58.9661 98.7554 58.9997C98.826 59.0395 98.891 59.0883 98.949 59.145C99.0317 59.2408 99.0963 59.3509 99.1397 59.4699C99.2167 59.6661 99.2813 59.8669 99.3332 60.0712C99.3959 60.322 99.4613 60.6412 99.5239 61.0459C99.5553 61.3508 99.5894 61.6814 99.6207 62.0347C99.652 62.3881 99.6862 62.77 99.7175 63.1747C100.919 62.4147 101.962 61.7849 102.849 61.2852C103.735 60.7856 104.436 60.4056 104.952 60.1453C104.98 60.1279 105.011 60.1165 105.044 60.1119C105.076 60.1072 105.109 60.1094 105.141 60.1182C105.172 60.1271 105.202 60.1424 105.227 60.1633C105.253 60.1841 105.273 60.21 105.288 60.2394C105.313 60.2983 105.317 60.3637 105.3 60.4252C105.283 60.4867 105.245 60.5407 105.194 60.5785C104.665 60.8635 103.933 61.2453 103.005 61.7583C102.077 62.2713 100.984 62.9296 99.7346 63.7304C99.7517 63.9394 99.7602 64.1446 99.7602 64.3459V64.9815C99.7735 65.8022 99.7735 66.621 99.7602 67.438C99.7469 68.2549 99.7061 69.0491 99.6378 69.8204C99.5809 70.5927 99.5154 71.3137 99.4329 71.9863C99.3503 72.6589 99.2564 73.263 99.1482 73.7931C98.9479 74.8599 98.6081 75.8957 98.1377 76.8737C97.7679 77.6126 97.2718 78.281 96.6718 78.8486C95.9398 79.5691 94.9598 79.9812 93.9335 80ZM99.2706 64.0638C98.9176 64.2889 98.5647 64.5198 98.2146 64.762C97.8645 65.0042 97.5001 65.2522 97.1329 65.5087C95.4997 66.6766 93.9754 67.99 92.5786 69.4329C91.2179 70.9243 90.4171 72.2722 90.1761 73.4767C90.0157 74.1834 89.983 74.913 90.0794 75.6312C90.1664 76.2983 90.3871 76.941 90.7283 77.5206C91.0033 78.018 91.3796 78.452 91.8328 78.7945C92.2594 79.1214 92.7518 79.3518 93.2759 79.4699C94.3823 79.6941 95.4079 79.373 96.353 78.5067C97.4593 77.494 98.2288 75.8972 98.6615 73.7161C98.7753 73.1861 98.8693 72.5762 98.9461 71.9122C99.023 71.2482 99.0941 70.5186 99.1482 69.7577C99.2023 68.9968 99.245 68.2046 99.2706 67.3867C99.2962 66.5688 99.2962 65.7566 99.2706 64.9558V64.497C99.281 64.3528 99.2829 64.2082 99.2763 64.0638H99.2706Z" fill="#993921"/>
<path d="M110.506 63.7988C109.574 63.7988 108.868 63.5138 108.388 62.9439C108.136 62.6459 107.952 62.2969 107.847 61.9208C107.746 61.5552 107.686 61.1796 107.668 60.8008C107.477 61.3135 107.252 61.8125 106.993 62.2941C106.874 62.5134 106.738 62.7231 106.586 62.9211C106.523 63.0144 106.438 63.0913 106.339 63.1454C106.24 63.1994 106.129 63.229 106.017 63.2317H105.92C105.823 63.2141 105.732 63.1732 105.655 63.1127C105.578 63.0521 105.516 62.9736 105.476 62.884C105.377 62.6971 105.3 62.4991 105.248 62.2941C105.2 62.1003 105.154 61.8723 105.114 61.6073C105.075 61.3423 105.04 61.0373 105.006 60.7039C104.961 60.1339 104.935 59.6381 104.935 59.1878V58.4782C104.942 58.4189 104.97 58.364 105.014 58.3241C105.058 58.2843 105.116 58.2622 105.176 58.2622C105.235 58.2622 105.293 58.2843 105.337 58.3241C105.382 58.364 105.41 58.4189 105.416 58.4782V59.1764C105.416 59.6267 105.439 60.1254 105.487 60.6697C105.508 61.0621 105.556 61.4526 105.632 61.8381C105.673 62.0492 105.738 62.2548 105.826 62.4508C105.859 62.5632 105.925 62.6627 106.017 62.7358C106.048 62.7501 106.096 62.7358 106.162 62.6617C106.345 62.4836 106.492 62.2717 106.595 62.0376C106.81 61.6201 107 61.19 107.164 60.7495C107.371 60.2118 107.595 59.5735 107.836 58.8344C107.855 58.7785 107.895 58.7321 107.948 58.7043C108 58.6766 108.061 58.6695 108.118 58.6846C108.176 58.6997 108.225 58.7357 108.257 58.7856C108.289 58.8356 108.301 58.8957 108.291 58.9541C108.205 59.4113 108.154 59.8743 108.137 60.3391C108.13 60.739 108.166 61.1384 108.246 61.5304C108.316 61.9291 108.49 62.3025 108.749 62.6133C109.212 63.1433 109.91 63.3761 110.842 63.3115C111.242 63.2625 111.639 63.1902 112.031 63.0949C112.714 62.9411 113.387 62.7508 114.049 62.5249C114.872 62.2444 115.679 61.919 116.466 61.5503C117.312 61.1606 118.117 60.6891 118.871 60.1425C118.897 60.1235 118.925 60.1097 118.956 60.1018C118.986 60.0939 119.018 60.0922 119.049 60.0967C119.081 60.1012 119.111 60.1119 119.138 60.128C119.165 60.1442 119.188 60.1656 119.207 60.1909C119.231 60.2141 119.249 60.2425 119.259 60.2739C119.27 60.3052 119.273 60.3386 119.268 60.3713C119.263 60.4041 119.251 60.4352 119.232 60.4623C119.213 60.4894 119.188 60.5116 119.159 60.5272C118.382 61.1136 117.54 61.6071 116.648 61.9977C115.794 62.3653 115.017 62.6703 114.328 62.9125C113.607 63.1631 112.872 63.3752 112.128 63.548C111.51 63.6848 111.089 63.7703 110.864 63.8017L110.506 63.7988Z" fill="#993921"/>
<path d="M125.626 60.131C125.647 60.1125 125.673 60.0991 125.7 60.092C125.727 60.0849 125.756 60.0842 125.783 60.09C125.811 60.0958 125.837 60.1079 125.859 60.1254C125.881 60.1429 125.899 60.1653 125.911 60.1909C125.93 60.2127 125.945 60.2386 125.953 60.2668C125.961 60.2949 125.963 60.3245 125.959 60.3535C125.954 60.3825 125.943 60.41 125.926 60.4342C125.91 60.4583 125.888 60.4784 125.862 60.493C125.507 60.7428 125.125 60.953 124.724 61.1199C124.313 61.3016 123.887 61.4475 123.451 61.5559C123.019 61.6593 122.582 61.7402 122.142 61.7982C121.743 61.8506 121.341 61.8782 120.938 61.8808C120.137 61.8808 119.568 61.6728 119.23 61.2567C119.06 61.0623 118.948 60.8245 118.906 60.5699C118.864 60.3396 118.852 60.1051 118.869 59.8717C118.879 59.6891 118.907 59.5078 118.951 59.3302C118.977 59.2518 118.998 59.1718 119.014 59.0909C119.076 58.9284 119.182 58.88 119.324 58.9455C119.358 58.9502 119.39 58.9633 119.418 58.9838C119.446 59.0042 119.468 59.0313 119.482 59.0625C119.497 59.0937 119.503 59.1281 119.501 59.1624C119.498 59.1968 119.488 59.23 119.469 59.259C119.412 59.4633 119.372 59.6721 119.35 59.8831C119.329 60.0725 119.329 60.2636 119.35 60.4531C119.373 60.6404 119.452 60.8163 119.577 60.9575C119.728 61.1172 119.913 61.2409 120.118 61.3194C120.384 61.4197 120.666 61.4681 120.949 61.4619C121.319 61.4603 121.687 61.4365 122.054 61.3907C122.471 61.3389 122.884 61.2628 123.292 61.1627C123.714 61.0598 124.128 60.9265 124.53 60.7637C124.923 60.6049 125.292 60.3919 125.626 60.131ZM119.424 58.3271H119.364C119.319 58.3091 119.275 58.2881 119.233 58.2644C119.191 58.2404 119.157 58.2047 119.134 58.1616C119.112 58.1185 119.103 58.0699 119.108 58.0216C119.113 57.9734 119.131 57.9275 119.162 57.8897C119.192 57.8519 119.232 57.8236 119.278 57.8084C119.307 57.7996 119.337 57.7971 119.366 57.801C119.396 57.8049 119.424 57.8152 119.449 57.8312L119.543 57.8797C119.575 57.8917 119.604 57.9111 119.627 57.9363C119.65 57.9616 119.667 57.9919 119.677 58.0248C119.686 58.0578 119.688 58.0925 119.681 58.1262C119.675 58.1599 119.661 58.1916 119.64 58.2188C119.618 58.2563 119.586 58.287 119.548 58.3076C119.51 58.3282 119.467 58.3379 119.424 58.3357V58.3271Z" fill="#993921"/>
<path d="M54.2594 57.3411C54.2144 57.3412 54.1705 57.3276 54.1334 57.3022C54.0963 57.2767 54.0677 57.2406 54.0516 57.1986C54.032 57.1437 54.0343 57.0834 54.0582 57.0302C54.0821 56.9771 54.1256 56.9353 54.1797 56.9136C54.795 56.6809 55.371 56.3551 55.8876 55.9475C55.9103 55.9291 55.9365 55.9155 55.9646 55.9075C55.9928 55.8995 56.0222 55.8973 56.0512 55.9011C56.0802 55.9048 56.1082 55.9144 56.1334 55.9292C56.1586 55.944 56.1805 55.9639 56.1978 55.9874C56.2161 56.0104 56.2296 56.0367 56.2376 56.065C56.2456 56.0932 56.248 56.1227 56.2446 56.1519C56.2411 56.181 56.232 56.2092 56.2176 56.2348C56.2032 56.2603 56.1839 56.2828 56.1608 56.3009C55.6104 56.7337 54.9982 57.0814 54.3448 57.3325C54.317 57.3401 54.2881 57.3429 54.2594 57.3411Z" fill="#993921"/>
<path d="M25.4361 45.1781C25.4361 41.2339 28.4505 38.3841 32.5038 38.3841C34.6529 38.3841 36.4889 39.1592 37.7243 40.5927L36.1502 42.0832C35.7072 41.5875 35.1631 41.1928 34.5547 40.9258C33.9462 40.6589 33.2876 40.5258 32.6234 40.5357C29.8879 40.5357 27.8954 42.4622 27.8954 45.1781C27.8954 47.8939 29.8879 49.8204 32.6063 49.8204C33.2726 49.8312 33.9332 49.6966 34.5423 49.4259C35.1513 49.1552 35.6942 48.755 36.1331 48.253L37.7157 49.7634C36.4917 51.1883 34.6444 51.972 32.4754 51.972C28.4647 51.972 25.4361 49.1222 25.4361 45.1781Z" fill="#993921"/>
<path d="M51.3503 51.7839L48.6547 47.9139C48.4854 47.9305 48.3153 47.9372 48.1452 47.9338H45.1678V51.7839H42.717V38.5722H48.1452C51.6122 38.5722 53.7613 40.3476 53.7613 43.2715C53.7613 45.2664 52.7451 46.7455 50.9546 47.4437L53.989 51.7839H51.3503ZM48.0313 40.6497H45.1678V45.9133H48.0313C50.1804 45.9133 51.2934 44.933 51.2934 43.2715C51.2934 41.6101 50.1804 40.6497 48.0313 40.6497Z" fill="#993921"/>
<path d="M59.1326 38.5722H61.5834V51.7839H59.1326V38.5722Z" fill="#993921"/>
<path d="M66.67 50.3876L67.5239 48.481C68.7822 49.421 70.3091 49.9306 71.879 49.9345C73.9342 49.9345 74.7995 49.1964 74.7995 48.2246C74.7995 45.3747 66.9575 47.2442 66.9575 42.3368C66.9575 40.2052 68.6654 38.3927 72.2747 38.3927C73.8573 38.3927 75.5168 38.8088 76.6668 39.564L75.8926 41.4705C74.7922 40.8099 73.5376 40.4512 72.2548 40.4303C70.2195 40.4303 69.3912 41.2254 69.3912 42.2229C69.3912 45.0356 77.2133 43.206 77.2133 48.0536C77.2133 50.1681 75.5054 51.9806 71.879 51.9806C69.8182 51.9721 67.763 51.3309 66.67 50.3876Z" fill="#993921"/>
<path d="M84.7621 40.6497H80.39V38.5722H91.5851V40.6497H87.213V51.7839H84.7621V40.6497Z" fill="#993921"/>
<path d="M96.0712 38.5722H98.522V51.7839H96.0712V38.5722Z" fill="#993921"/>
<path d="M116.446 38.5722V51.7839H114.428L107.152 42.8384V51.7839H104.722V38.5722H106.743L114.018 47.5178V38.5722H116.446Z" fill="#993921"/>
<path d="M131.182 48.7318H124.587L123.283 51.7897H120.759L126.696 38.5779H129.11L135.065 51.7897H132.503L131.182 48.7318ZM130.368 46.7997L127.883 41.0373L125.415 46.8111L130.368 46.7997Z" fill="#993921"/>
</svg>
