<svg width="27" height="24" viewBox="0 0 27 24" fill="none" xmlns="http://www.w3.org/2000/svg">
<path fill-rule="evenodd" clip-rule="evenodd" d="M20.7343 6.00002L13.6379 10.468C13.303 10.643 12.8929 10.643 12.5579 10.468L5.46158 6.00002H20.7343ZM20.7343 4.00006H5.46157C3.65721 4.00006 2.18884 5.34606 2.18884 7.00006V17.0001C2.18884 18.6541 3.65721 20.0001 5.46157 20.0001H20.7343C22.5387 20.0001 24.007 18.6541 24.007 17.0001V7.00006C24.007 5.34606 22.5387 4.00006 20.7343 4.00006Z" fill="white"/>
<mask id="mask0" mask-type="alpha" maskUnits="userSpaceOnUse" x="2" y="4" width="23" height="16">
<path fill-rule="evenodd" clip-rule="evenodd" d="M20.7343 6.00002L13.6379 10.468C13.303 10.643 12.8929 10.643 12.5579 10.468L5.46158 6.00002H20.7343ZM20.7343 4.00006H5.46157C3.65721 4.00006 2.18884 5.34606 2.18884 7.00006V17.0001C2.18884 18.6541 3.65721 20.0001 5.46157 20.0001H20.7343C22.5387 20.0001 24.007 18.6541 24.007 17.0001V7.00006C24.007 5.34606 22.5387 4.00006 20.7343 4.00006Z" fill="white"/>
</mask>
<g mask="url(#mask0)">
</g>
</svg>
