<svg width="16" height="25" viewBox="0 0 16 25" fill="none" xmlns="http://www.w3.org/2000/svg">
<path fill-rule="evenodd" clip-rule="evenodd" d="M15.0159 1.03858C15.0159 0.672284 14.7087 0.375 14.3333 0.375H10.9206C7.15029 0.375 4.09524 3.04923 4.09524 6.34722V9.93056H0.68254C0.305778 9.93056 0 10.2278 0 10.5941V14.0448C0 14.411 0.305778 14.7083 0.68254 14.7083H4.09524V23.6003C4.09524 23.9666 4.40102 24.2639 4.77778 24.2639H8.87302C9.24841 24.2639 9.55556 23.9666 9.55556 23.6003V14.7083H13.1307C13.4378 14.7083 13.7068 14.5093 13.79 14.2226L14.7743 10.772C14.8957 10.3499 14.5681 9.93056 14.1177 9.93056H9.55556V6.34722C9.55556 5.68762 10.1657 5.15278 10.9206 5.15278H14.3333C14.7087 5.15278 15.0159 4.85549 15.0159 4.4892V1.03858Z" fill="#F29754"/>
</svg>
