<svg width="30" height="30" viewBox="0 0 30 30" fill="none" xmlns="http://www.w3.org/2000/svg">
<path fill-rule="evenodd" clip-rule="evenodd" d="M21.25 4.375C21.25 4.03 20.9688 3.75 20.625 3.75H17.5C14.0475 3.75 11.25 6.26875 11.25 9.375V12.75H8.125C7.78 12.75 7.5 13.03 7.5 13.375V16.625C7.5 16.97 7.78 17.25 8.125 17.25H11.25V25.625C11.25 25.97 11.53 26.25 11.875 26.25H15.625C15.9688 26.25 16.25 25.97 16.25 25.625V17.25H19.5238C19.805 17.25 20.0513 17.0625 20.1275 16.7925L21.0287 13.5425C21.14 13.145 20.84 12.75 20.4275 12.75H16.25V9.375C16.25 8.75375 16.8088 8.25 17.5 8.25H20.625C20.9688 8.25 21.25 7.97 21.25 7.625V4.375Z" fill="white"/>
<mask id="mask0" mask-type="alpha" maskUnits="userSpaceOnUse" x="7" y="3" width="15" height="24">
<path fill-rule="evenodd" clip-rule="evenodd" d="M21.25 4.375C21.25 4.03 20.9688 3.75 20.625 3.75H17.5C14.0475 3.75 11.25 6.26875 11.25 9.375V12.75H8.125C7.78 12.75 7.5 13.03 7.5 13.375V16.625C7.5 16.97 7.78 17.25 8.125 17.25H11.25V25.625C11.25 25.97 11.53 26.25 11.875 26.25H15.625C15.9688 26.25 16.25 25.97 16.25 25.625V17.25H19.5238C19.805 17.25 20.0513 17.0625 20.1275 16.7925L21.0287 13.5425C21.14 13.145 20.84 12.75 20.4275 12.75H16.25V9.375C16.25 8.75375 16.8088 8.25 17.5 8.25H20.625C20.9688 8.25 21.25 7.97 21.25 7.625V4.375Z" fill="white"/>
</mask>
<g mask="url(#mask0)">
<rect width="24" height="24" fill="#FEF9F9"/>
</g>
</svg>
