<svg width="13" height="21" viewBox="0 0 13 21" fill="none" xmlns="http://www.w3.org/2000/svg">
<path fill-rule="evenodd" clip-rule="evenodd" d="M13 0.583333C13 0.261333 12.7341 0 12.4091 0H9.45455C6.19036 0 3.54545 2.35083 3.54545 5.25V8.4H0.590909C0.264727 8.4 0 8.66133 0 8.98333V12.0167C0 12.3387 0.264727 12.6 0.590909 12.6H3.54545V20.4167C3.54545 20.7387 3.81018 21 4.13636 21H7.68182C8.00682 21 8.27273 20.7387 8.27273 20.4167V12.6H11.3679C11.6338 12.6 11.8666 12.425 11.9387 12.173L12.7908 9.13967C12.896 8.76867 12.6124 8.4 12.2224 8.4H8.27273V5.25C8.27273 4.67017 8.801 4.2 9.45455 4.2H12.4091C12.7341 4.2 13 3.93867 13 3.61667V0.583333Z" fill="#E7600D"/>
</svg>
