<svg width="24" height="24" viewBox="0 0 24 24" fill="none" xmlns="http://www.w3.org/2000/svg">
<path fill-rule="evenodd" clip-rule="evenodd" d="M17.3998 21.9999C8.90782 21.9999 1.99982 15.0919 1.99982 6.59994C1.99982 4.06294 4.06382 1.99994 6.59982 1.99994C6.85982 1.99994 7.11682 2.02194 7.36582 2.06494C7.60882 2.10394 7.85382 2.16594 8.09082 2.24794C8.41682 2.36094 8.66082 2.63394 8.73782 2.96994L10.1078 8.93394C10.1828 9.26194 10.0878 9.60594 9.85482 9.84994C9.71782 9.99194 9.71482 9.99494 8.47482 10.6439C9.47882 12.8179 11.2238 14.5569 13.3548 15.5269C14.0038 14.2859 14.0078 14.2819 14.1498 14.1459C14.3948 13.9119 14.7398 13.8209 15.0668 13.8929L21.0308 15.2619C21.3658 15.3389 21.6388 15.5829 21.7518 15.9079C21.8338 16.1439 21.8948 16.3879 21.9358 16.6389C21.9778 16.8859 21.9998 17.1419 21.9998 17.3999C21.9998 19.9369 19.9368 21.9999 17.3998 21.9999Z" fill="white"/>
<mask id="mask0" mask-type="alpha" maskUnits="userSpaceOnUse" x="1" y="2" width="21" height="20">
<path fill-rule="evenodd" clip-rule="evenodd" d="M17.3998 21.9999C8.90782 21.9999 1.99982 15.0919 1.99982 6.59994C1.99982 4.06294 4.06382 1.99994 6.59982 1.99994C6.85982 1.99994 7.11682 2.02194 7.36582 2.06494C7.60882 2.10394 7.85382 2.16594 8.09082 2.24794C8.41682 2.36094 8.66082 2.63394 8.73782 2.96994L10.1078 8.93394C10.1828 9.26194 10.0878 9.60594 9.85482 9.84994C9.71782 9.99194 9.71482 9.99494 8.47482 10.6439C9.47882 12.8179 11.2238 14.5569 13.3548 15.5269C14.0038 14.2859 14.0078 14.2819 14.1498 14.1459C14.3948 13.9119 14.7398 13.8209 15.0668 13.8929L21.0308 15.2619C21.3658 15.3389 21.6388 15.5829 21.7518 15.9079C21.8338 16.1439 21.8948 16.3879 21.9358 16.6389C21.9778 16.8859 21.9998 17.1419 21.9998 17.3999C21.9998 19.9369 19.9368 21.9999 17.3998 21.9999Z" fill="white"/>
</mask>
<g mask="url(#mask0)">
</g>
</svg>
