<svg width="18" height="18" viewBox="0 0 18 18" fill="none" xmlns="http://www.w3.org/2000/svg">
<g clip-path="url(#clip0)">
<path d="M4.87284 5.97825C5.65153 7.57153 7.44562 8.88234 8.25 9.4125V10.8325L5.05444 12.75H12.9699L9.75 10.818V9.4125C10.5544 8.88216 12.3485 7.57134 13.1272 5.97806C15.7822 5.69888 16.5 2.48606 16.5 0.75C16.5 0.551088 16.421 0.360322 16.2803 0.21967C16.1397 0.0790176 15.9489 0 15.75 0L2.25 0C2.05109 0 1.86032 0.0790176 1.71967 0.21967C1.57902 0.360322 1.5 0.551088 1.5 0.75C1.5 2.48606 2.21784 5.69888 4.87284 5.97825ZM13.5 4.3305V1.5H14.9421C14.8283 2.39822 14.4919 3.84084 13.5 4.3305ZM4.5 1.5V4.3305C3.50803 3.84084 3.17156 2.39784 3.05794 1.5H4.5Z" fill="white"/>
<path d="M4.51221 17.25C4.51221 17.4489 4.59122 17.6397 4.73188 17.7803C4.87253 17.921 5.06329 18 5.26221 18H12.7622C12.9611 18 13.1519 17.921 13.2925 17.7803C13.4332 17.6397 13.5122 17.4489 13.5122 17.25V13.5H4.51221V17.25Z" fill="white"/>
</g>
<defs>
<clipPath id="clip0">
<rect width="18" height="18" fill="white"/>
</clipPath>
</defs>
</svg>
