<svg width="23" height="23" viewBox="0 0 23 23" fill="none" xmlns="http://www.w3.org/2000/svg">
<g clip-path="url(#clip0)">
<path d="M6.22643 7.63888C7.22142 9.67474 9.51387 11.3497 10.5417 12.0271V13.8416L6.45847 16.2917H16.5727L12.4584 13.823V12.0271C13.4862 11.3494 15.7786 9.6745 16.7736 7.63864C20.1661 7.2819 21.0834 3.17664 21.0834 0.958333C21.0834 0.704168 20.9824 0.460412 20.8027 0.280689C20.6229 0.100967 20.3792 0 20.125 0L2.87502 0C2.62085 0 2.3771 0.100967 2.19738 0.280689C2.01765 0.460412 1.91669 0.704168 1.91669 0.958333C1.91669 3.17664 2.83393 7.2819 6.22643 7.63888ZM17.25 5.53342V1.91667H19.0927C18.9473 3.06439 18.5174 4.90775 17.25 5.53342ZM5.75002 1.91667V5.53342C4.4825 4.90775 4.05257 3.06391 3.90738 1.91667H5.75002Z" fill="white"/>
<path d="M5.76562 22.0417C5.76562 22.2958 5.86659 22.5396 6.04631 22.7193C6.22604 22.899 6.46979 23 6.72396 23H16.3073C16.5615 23 16.8052 22.899 16.9849 22.7193C17.1647 22.5396 17.2656 22.2958 17.2656 22.0417V17.25H5.76562V22.0417Z" fill="white"/>
</g>
<defs>
<clipPath id="clip0">
<rect width="23" height="23" fill="white"/>
</clipPath>
</defs>
</svg>
