<svg width="17" height="17" viewBox="0 0 17 17" fill="none" xmlns="http://www.w3.org/2000/svg">
<path fill-rule="evenodd" clip-rule="evenodd" d="M12.4913 16.6944C5.92478 16.6944 0.58313 11.0799 0.58313 4.17791C0.58313 2.11594 2.17913 0.439209 4.14011 0.439209C4.34115 0.439209 4.53988 0.45709 4.73242 0.492038C4.92032 0.523736 5.10977 0.574127 5.29303 0.640774C5.54511 0.732616 5.73379 0.9545 5.79333 1.22759L6.85269 6.07489C6.91068 6.34148 6.83722 6.62107 6.65705 6.81938C6.55112 6.9348 6.5488 6.93723 5.58996 7.46472C6.36631 9.23166 7.71564 10.6451 9.36345 11.4334C9.86529 10.4248 9.86838 10.4215 9.97819 10.311C10.1676 10.1208 10.4344 10.0469 10.6873 10.1054L15.299 11.218C15.558 11.2806 15.7691 11.4789 15.8565 11.7431C15.9199 11.9349 15.9671 12.1332 15.9988 12.3372C16.0312 12.538 16.0482 12.746 16.0482 12.9557C16.0482 15.0177 14.453 16.6944 12.4913 16.6944Z" fill="#F29754"/>
</svg>
