<svg width="30" height="30" viewBox="0 0 30 30" fill="none" xmlns="http://www.w3.org/2000/svg">
<path fill-rule="evenodd" clip-rule="evenodd" d="M10.0962 25.0003C19.1537 25.0003 24.3937 17.9678 24.3937 11.2941C24.3937 11.1103 25.6812 10.0053 26.2324 7.70159C26.3449 7.23409 25.8899 6.86534 25.4612 7.06159C24.3612 7.56659 23.2449 7.16659 22.7599 6.59159C20.8949 4.55784 17.7762 4.46034 15.7924 6.37284C14.5137 7.60659 13.9712 9.44409 14.3674 11.1978C10.1787 11.4966 7.30241 9.51159 4.93741 6.79034C4.63241 6.43659 4.06616 6.62284 4.00241 7.09034C3.65241 9.69284 3.54241 16.0203 9.81241 19.6541C8.72366 21.2191 6.59241 22.1428 4.21991 22.5391C3.69491 22.6278 3.56991 23.3553 4.04991 23.5903C5.92991 24.5153 7.99616 24.9991 10.0962 24.9966" fill="white"/>
<mask id="mask0" mask-type="alpha" maskUnits="userSpaceOnUse" x="3" y="5" width="24" height="21">
<path fill-rule="evenodd" clip-rule="evenodd" d="M10.0962 25.0003C19.1537 25.0003 24.3937 17.9678 24.3937 11.2941C24.3937 11.1103 25.6812 10.0053 26.2324 7.70159C26.3449 7.23409 25.8899 6.86534 25.4612 7.06159C24.3612 7.56659 23.2449 7.16659 22.7599 6.59159C20.8949 4.55784 17.7762 4.46034 15.7924 6.37284C14.5137 7.60659 13.9712 9.44409 14.3674 11.1978C10.1787 11.4966 7.30241 9.51159 4.93741 6.79034C4.63241 6.43659 4.06616 6.62284 4.00241 7.09034C3.65241 9.69284 3.54241 16.0203 9.81241 19.6541C8.72366 21.2191 6.59241 22.1428 4.21991 22.5391C3.69491 22.6278 3.56991 23.3553 4.04991 23.5903C5.92991 24.5153 7.99616 24.9991 10.0962 24.9966" fill="white"/>
</mask>
<g mask="url(#mask0)">
</g>
</svg>
