<svg width="27" height="25" viewBox="0 0 27 25" fill="none" xmlns="http://www.w3.org/2000/svg">
<path fill-rule="evenodd" clip-rule="evenodd" d="M7.40373 24.1668C17.9706 24.1668 24.0839 15.9624 24.0839 8.17648C24.0839 7.96211 25.5859 6.67296 26.229 3.9853C26.3603 3.43989 25.8295 3.00969 25.3293 3.23865C24.046 3.8278 22.7437 3.36115 22.1779 2.69032C20.0021 0.317657 16.3636 0.203909 14.0492 2.43512C12.5574 3.87447 11.9245 6.01818 12.3868 8.06419C7.49998 8.41273 4.14441 6.09693 1.38529 2.92219C1.02947 2.50949 0.368852 2.72678 0.294478 3.27219C-0.113849 6.30839 -0.242179 13.6903 7.0727 17.9296C5.80251 19.7554 3.31609 20.8331 0.548224 21.2954C-0.0642662 21.399 -0.210097 22.2477 0.349894 22.5219C2.54319 23.601 4.95377 24.1654 7.40373 24.1625" fill="#F29754"/>
</svg>
