<svg width="20" height="18" viewBox="0 0 20 18" fill="none" xmlns="http://www.w3.org/2000/svg">
<path fill-rule="evenodd" clip-rule="evenodd" d="M5.64109 18C13.6923 18 18.3501 11.6709 18.3501 5.66459C18.3501 5.49922 19.4946 4.50473 19.9846 2.43139C20.0846 2.01065 19.6801 1.67878 19.299 1.8554C18.3212 2.3099 17.329 1.9499 16.8979 1.43241C15.2401 -0.397933 12.4678 -0.485682 10.7045 1.23554C9.5678 2.34589 9.08557 3.99962 9.4378 5.57796C5.71443 5.84683 3.15773 4.06037 1.05549 1.61128C0.784376 1.29291 0.281037 1.46053 0.22437 1.88128C-0.0867442 4.22349 -0.184522 9.91814 5.38887 13.1885C4.42108 14.5969 2.52662 15.4283 0.417705 15.7849C-0.0489661 15.8648 -0.160078 16.5195 0.266593 16.731C1.93772 17.5635 3.77441 17.9989 5.64109 17.9966" fill="#E7600D"/>
</svg>
