<svg width="46" height="46" viewBox="0 0 46 46" fill="none" xmlns="http://www.w3.org/2000/svg">
<g filter="url(#filter0_d)">
<circle cx="23" cy="21" r="20" fill="white"/>
<path fill-rule="evenodd" clip-rule="evenodd" d="M33.916 10.0713C31.2891 7.44357 27.7866 6 24.0568 6C16.3767 6 10.1203 12.2267 10.1136 19.8703C10.1136 22.3184 10.7553 24.6999 11.9718 26.8087L10 34L17.3927 32.0708C19.4314 33.1751 21.724 33.7605 24.0568 33.7605H24.0635C31.7436 33.7605 38 27.5339 38.0067 19.8836C38 16.1782 36.5495 12.6923 33.916 10.0713ZM24.0568 31.4122C21.9713 31.4122 19.9327 30.8534 18.1547 29.8023L17.7336 29.5495L13.3488 30.6938L14.5185 26.4362L14.2444 25.9972C13.0814 24.1611 12.4731 22.039 12.4731 19.8636C12.4731 13.5172 17.6734 8.34165 24.0635 8.34165C27.1583 8.34165 30.0659 9.54574 32.2583 11.7211C34.444 13.9031 35.6472 16.7969 35.6472 19.8769C35.6405 26.2433 30.4402 31.4122 24.0568 31.4122ZM30.4134 22.7774C30.0659 22.6044 28.3547 21.7662 28.0339 21.6465C27.713 21.5334 27.4791 21.4735 27.2518 21.8194C27.0179 22.1654 26.3495 22.9503 26.149 23.1765C25.9484 23.4094 25.7412 23.436 25.3936 23.263C25.0461 23.09 23.9231 22.7242 22.593 21.54C21.5569 20.622 20.8618 19.4844 20.6546 19.1385C20.454 18.7926 20.6345 18.6063 20.8083 18.4334C20.962 18.2804 21.1559 18.0276 21.3297 17.828C21.5035 17.6284 21.5636 17.4821 21.6772 17.2492C21.7909 17.0164 21.7374 16.8168 21.6505 16.6439C21.5636 16.4709 20.8685 14.7612 20.5744 14.0694C20.2936 13.3908 20.0062 13.484 19.7923 13.4773C19.5918 13.464 19.3578 13.464 19.1239 13.464C18.8899 13.464 18.5156 13.5505 18.1948 13.8964C17.874 14.2423 16.9783 15.0805 16.9783 16.7902C16.9783 18.4999 18.2282 20.143 18.402 20.3759C18.5758 20.6087 20.8551 24.1079 24.3509 25.6113C25.1797 25.9705 25.8281 26.1834 26.3361 26.3431C27.1716 26.6092 27.9269 26.5693 28.5285 26.4828C29.1969 26.383 30.5872 25.6446 30.8813 24.833C31.1688 24.0214 31.1688 23.3295 31.0819 23.1832C30.995 23.0368 30.761 22.9503 30.4134 22.7774Z" fill="#455A64"/>
</g>
<defs>
<filter id="filter0_d" x="0" y="0" width="46" height="46" filterUnits="userSpaceOnUse" color-interpolation-filters="sRGB">
<feFlood flood-opacity="0" result="BackgroundImageFix"/>
<feColorMatrix in="SourceAlpha" type="matrix" values="0 0 0 0 0 0 0 0 0 0 0 0 0 0 0 0 0 0 127 0"/>
<feOffset dy="2"/>
<feGaussianBlur stdDeviation="1.5"/>
<feColorMatrix type="matrix" values="0 0 0 0 0.270588 0 0 0 0 0.352941 0 0 0 0 0.392157 0 0 0 0.8 0"/>
<feBlend mode="normal" in2="BackgroundImageFix" result="effect1_dropShadow"/>
<feBlend mode="normal" in="SourceGraphic" in2="effect1_dropShadow" result="shape"/>
</filter>
</defs>
</svg>
