<svg width="24" height="25" viewBox="0 0 24 25" fill="none" xmlns="http://www.w3.org/2000/svg">
<g clip-path="url(#clip0)">
<path d="M23.5789 7.47192C23.2817 6.13034 22.2415 5.14994 20.9783 5.02094C18.0062 4.68555 14.9845 4.68555 11.9876 4.68555C8.99071 4.68555 5.96904 4.68555 2.9969 5.02094C1.73375 5.17574 0.693498 6.15614 0.396285 7.47192C0 9.38111 0 11.4451 0 13.3801C0 15.3151 0 17.4048 0.421053 19.2882C0.718266 20.6298 1.75851 21.6102 3.02167 21.7392C5.99381 22.0746 9.01548 22.0746 12.0124 22.0746C15.0093 22.0746 18.031 22.0746 21.0031 21.7392C22.2663 21.5844 23.3065 20.604 23.6037 19.2882C24.0248 17.4048 24.0248 15.3409 24.0248 13.3801C24 11.4451 24 9.38111 23.5789 7.47192ZM8.89164 17.2758C8.89164 14.5153 8.89164 11.7805 8.89164 9.01991C11.4427 10.4131 13.969 11.7805 16.5201 13.1737C13.969 14.5153 11.4427 15.8827 8.89164 17.2758Z" fill="white"/>
</g>
<defs>
<clipPath id="clip0">
<rect width="24" height="25" fill="white"/>
</clipPath>
</defs>
</svg>
