<svg width="21" height="15" viewBox="0 0 21 15" fill="none" xmlns="http://www.w3.org/2000/svg">
<path d="M20.6103 2.40356C20.3505 1.24629 19.4412 0.400594 18.3371 0.289318C15.7392 5.30605e-08 13.0979 0 10.4784 0C7.85876 0 5.21753 5.30605e-08 2.61959 0.289318C1.51546 0.422849 0.606186 1.26855 0.346392 2.40356C0 4.05045 0 5.83086 0 7.5C0 9.16914 0 10.9718 0.368041 12.5964C0.627835 13.7537 1.53711 14.5994 2.64124 14.7107C5.23918 15 7.88041 15 10.5 15C13.1196 15 15.7608 15 18.3588 14.7107C19.4629 14.5772 20.3722 13.7315 20.632 12.5964C21 10.9718 21 9.19139 21 7.5C20.9783 5.83086 20.9783 4.05045 20.6103 2.40356ZM7.77217 10.8605C7.77217 8.47923 7.77217 6.12018 7.77217 3.73887C10.0021 4.94065 12.2103 6.12018 14.4402 7.32196C12.2103 8.47923 10.0021 9.65875 7.77217 10.8605Z" fill="#E7600D"/>
</svg>
