<svg width="35" height="24" viewBox="0 0 35 24" fill="none" xmlns="http://www.w3.org/2000/svg">
<path d="M33.8991 3.8457C33.4718 1.99407 31.9763 0.64095 30.1602 0.462908C25.8872 8.48968e-08 21.543 0 17.2344 0C12.9258 0 8.5816 8.48968e-08 4.30861 0.462908C2.49258 0.676558 0.997033 2.02967 0.569733 3.8457C0 6.48071 0 9.32938 0 12C0 14.6706 0 17.5549 0.605341 20.1543C1.03264 22.0059 2.52819 23.3591 4.34421 23.5371C8.61721 24 12.9614 24 17.27 24C21.5786 24 25.9228 24 30.1958 23.5371C32.0119 23.3234 33.5074 21.9703 33.9347 20.1543C34.5401 17.5549 34.5401 14.7062 34.5401 12C34.5044 9.32938 34.5044 6.48071 33.8991 3.8457ZM12.7834 17.3769C12.7834 13.5668 12.7834 9.79228 12.7834 5.9822C16.451 7.90504 20.0831 9.79228 23.7507 11.7151C20.0831 13.5668 16.451 15.454 12.7834 17.3769Z" fill="#F29754"/>
</svg>
